<mxfile host="Electron" agent="Mozilla/5.0 (Windows NT 10.0; Win64; x64) AppleWebKit/537.36 (KHTML, like Gecko) draw.io/24.7.17 Chrome/128.0.6613.36 Electron/32.0.1 Safari/537.36" version="24.7.17" pages="2">
  <diagram name="Seite-1" id="0EJq3OtVe1qpbmkTLpbv">
    <mxGraphModel dx="1195" dy="703" grid="1" gridSize="10" guides="1" tooltips="1" connect="1" arrows="1" fold="1" page="1" pageScale="1" pageWidth="827" pageHeight="1169" math="0" shadow="0">
      <root>
        <mxCell id="0" />
        <mxCell id="1" parent="0" />
        <mxCell id="dSK6wooaO545PfnrdNq5-22" value="" style="rounded=0;whiteSpace=wrap;html=1;fontColor=#232f3e;fillColor=#BAE3E2;" parent="1" vertex="1">
          <mxGeometry x="58" y="70" width="542" height="690" as="geometry" />
        </mxCell>
        <mxCell id="dSK6wooaO545PfnrdNq5-19" value="" style="rounded=0;whiteSpace=wrap;html=1;dashed=1;dashPattern=8 8;" parent="1" vertex="1">
          <mxGeometry x="200" y="582.91" width="254" height="137.09" as="geometry" />
        </mxCell>
        <mxCell id="dSK6wooaO545PfnrdNq5-14" value="" style="edgeStyle=orthogonalEdgeStyle;rounded=0;orthogonalLoop=1;jettySize=auto;html=1;" parent="1" target="dSK6wooaO545PfnrdNq5-10" edge="1">
          <mxGeometry relative="1" as="geometry">
            <mxPoint x="309" y="383.9999999999999" as="sourcePoint" />
            <Array as="points">
              <mxPoint x="309" y="424" />
              <mxPoint x="414" y="424" />
            </Array>
          </mxGeometry>
        </mxCell>
        <mxCell id="dSK6wooaO545PfnrdNq5-4" value="" style="rounded=0;whiteSpace=wrap;html=1;dashed=1;dashPattern=8 8;" parent="1" vertex="1">
          <mxGeometry x="168" y="260" width="282" height="140" as="geometry" />
        </mxCell>
        <mxCell id="dSK6wooaO545PfnrdNq5-13" value="" style="edgeStyle=orthogonalEdgeStyle;rounded=0;orthogonalLoop=1;jettySize=auto;html=1;entryX=0.5;entryY=0;entryDx=0;entryDy=0;" parent="1" source="dSK6wooaO545PfnrdNq5-1" target="dSK6wooaO545PfnrdNq5-4" edge="1">
          <mxGeometry relative="1" as="geometry">
            <mxPoint x="260" y="158" as="targetPoint" />
          </mxGeometry>
        </mxCell>
        <mxCell id="dSK6wooaO545PfnrdNq5-3" value="AWS Elastic Beanstalk" style="sketch=0;outlineConnect=0;fontColor=#232F3E;gradientColor=none;strokeColor=#ffffff;fillColor=#232F3E;dashed=0;verticalLabelPosition=middle;verticalAlign=bottom;align=center;html=1;whiteSpace=wrap;fontSize=10;fontStyle=1;spacing=3;shape=mxgraph.aws4.productIcon;prIcon=mxgraph.aws4.elastic_beanstalk;" parent="1" vertex="1">
          <mxGeometry x="188" y="277.09000000000003" width="80" height="110" as="geometry" />
        </mxCell>
        <mxCell id="dSK6wooaO545PfnrdNq5-5" value="&lt;ul&gt;&lt;li&gt;API Gateway&lt;/li&gt;&lt;li&gt;Account Management&lt;/li&gt;&lt;li&gt;Workspace Module&lt;/li&gt;&lt;li&gt;IoT Device Management&lt;/li&gt;&lt;/ul&gt;" style="text;html=1;align=left;verticalAlign=middle;whiteSpace=wrap;rounded=0;" parent="1" vertex="1">
          <mxGeometry x="259" y="277.09" width="176" height="77.09" as="geometry" />
        </mxCell>
        <mxCell id="dSK6wooaO545PfnrdNq5-21" value="" style="edgeStyle=orthogonalEdgeStyle;rounded=0;orthogonalLoop=1;jettySize=auto;html=1;entryX=0.472;entryY=-0.021;entryDx=0;entryDy=0;entryPerimeter=0;" parent="1" source="dSK6wooaO545PfnrdNq5-10" edge="1" target="dSK6wooaO545PfnrdNq5-19">
          <mxGeometry relative="1" as="geometry">
            <mxPoint x="598" y="462.09000000000003" as="targetPoint" />
            <Array as="points">
              <mxPoint x="414" y="563" />
              <mxPoint x="320" y="563" />
            </Array>
          </mxGeometry>
        </mxCell>
        <mxCell id="dSK6wooaO545PfnrdNq5-10" value="Amazon IoT Core" style="sketch=0;outlineConnect=0;fontColor=#232F3E;gradientColor=none;strokeColor=#ffffff;fillColor=#232F3E;dashed=0;verticalLabelPosition=middle;verticalAlign=bottom;align=center;html=1;whiteSpace=wrap;fontSize=10;fontStyle=1;spacing=3;shape=mxgraph.aws4.productIcon;prIcon=mxgraph.aws4.iot_core;" parent="1" vertex="1">
          <mxGeometry x="374" y="444" width="80" height="110" as="geometry" />
        </mxCell>
        <mxCell id="dSK6wooaO545PfnrdNq5-15" value="" style="endArrow=classic;html=1;rounded=0;exitX=0.5;exitY=1;exitDx=0;exitDy=0;" parent="1" edge="1" target="dSK6wooaO545PfnrdNq5-30" source="dSK6wooaO545PfnrdNq5-4">
          <mxGeometry width="50" height="50" relative="1" as="geometry">
            <mxPoint x="309" y="383.9999999999999" as="sourcePoint" />
            <mxPoint x="488" y="301.09000000000003" as="targetPoint" />
            <Array as="points">
              <mxPoint x="309" y="424" />
              <mxPoint x="208" y="424" />
            </Array>
          </mxGeometry>
        </mxCell>
        <mxCell id="dSK6wooaO545PfnrdNq5-17" value="&lt;ul&gt;&lt;li&gt;&lt;span style=&quot;background-color: initial;&quot;&gt;Smart Lights&lt;/span&gt;&lt;/li&gt;&lt;li&gt;&lt;span style=&quot;background-color: initial;&quot;&gt;Sound&lt;/span&gt;&lt;/li&gt;&lt;li&gt;&lt;span style=&quot;background-color: initial;&quot;&gt;Desk*&lt;/span&gt;&lt;/li&gt;&lt;li&gt;&lt;span style=&quot;background-color: initial;&quot;&gt;Picture Frame*&lt;/span&gt;&lt;/li&gt;&lt;li&gt;&lt;span style=&quot;background-color: initial;&quot;&gt;Sensors (e.g. temperature)*&lt;/span&gt;&lt;/li&gt;&lt;/ul&gt;&lt;div&gt;&lt;div&gt;&lt;/div&gt;&lt;div&gt;&lt;br&gt;&lt;/div&gt;&lt;/div&gt;" style="text;html=1;align=left;verticalAlign=middle;whiteSpace=wrap;rounded=0;" parent="1" vertex="1">
          <mxGeometry x="254" y="600" width="200" height="100" as="geometry" />
        </mxCell>
        <mxCell id="dSK6wooaO545PfnrdNq5-24" value="&lt;font style=&quot;font-size: 10px;&quot;&gt;* This implementations have already been realized in existing project&lt;/font&gt;" style="text;html=1;align=center;verticalAlign=middle;whiteSpace=wrap;rounded=0;fontSize=10;" parent="1" vertex="1">
          <mxGeometry x="104" y="720" width="410" height="30" as="geometry" />
        </mxCell>
        <mxCell id="dSK6wooaO545PfnrdNq5-27" value="Smart Office" style="text;html=1;align=center;verticalAlign=middle;whiteSpace=wrap;rounded=0;fontStyle=3" parent="1" vertex="1">
          <mxGeometry x="245.75" y="120" width="126.5" height="20" as="geometry" />
        </mxCell>
        <mxCell id="dSK6wooaO545PfnrdNq5-28" value="Sensory Safe Space" style="text;html=1;align=center;verticalAlign=middle;whiteSpace=wrap;rounded=0;fontStyle=1;fontSize=20;" parent="1" vertex="1">
          <mxGeometry x="203" y="82" width="212" height="50" as="geometry" />
        </mxCell>
        <mxCell id="dSK6wooaO545PfnrdNq5-29" value="&lt;b&gt;&amp;nbsp;WebClient&lt;/b&gt;" style="text;html=1;align=center;verticalAlign=middle;whiteSpace=wrap;rounded=0;fontColor=#232f3e;" parent="1" vertex="1">
          <mxGeometry x="354" y="173" width="60" height="30" as="geometry" />
        </mxCell>
        <mxCell id="dSK6wooaO545PfnrdNq5-30" value="Amazon S3" style="sketch=0;outlineConnect=0;fontColor=#232F3E;gradientColor=none;strokeColor=#ffffff;fillColor=#232F3E;dashed=0;verticalLabelPosition=middle;verticalAlign=bottom;align=center;html=1;whiteSpace=wrap;fontSize=10;fontStyle=1;spacing=3;shape=mxgraph.aws4.productIcon;prIcon=mxgraph.aws4.s3;" parent="1" vertex="1">
          <mxGeometry x="168" y="444" width="80" height="100" as="geometry" />
        </mxCell>
        <mxCell id="VmAn_QUQrHyX6VmdPMhI-3" value="" style="whiteSpace=wrap;html=1;aspect=fixed;strokeColor=none;" vertex="1" parent="1">
          <mxGeometry x="268" y="147" width="82" height="82" as="geometry" />
        </mxCell>
        <mxCell id="VmAn_QUQrHyX6VmdPMhI-2" value="&lt;font color=&quot;#232f3e&quot;&gt;&lt;b&gt;IoT Devices&lt;/b&gt;&lt;/font&gt;" style="outlineConnect=0;dashed=0;verticalLabelPosition=bottom;verticalAlign=top;align=center;html=1;shape=mxgraph.aws3.hardware_board;fillColor=#232f3e;gradientColor=none;" vertex="1" parent="1">
          <mxGeometry x="208.5" y="599" width="67" height="90" as="geometry" />
        </mxCell>
        <mxCell id="dSK6wooaO545PfnrdNq5-1" value="" style="sketch=0;outlineConnect=0;fontColor=#232F3E;gradientColor=none;fillColor=#232F3D;strokeColor=none;dashed=0;verticalLabelPosition=bottom;verticalAlign=top;align=center;html=1;fontSize=12;fontStyle=0;aspect=fixed;pointerEvents=1;shape=mxgraph.aws4.client;labelBackgroundColor=default;" parent="1" vertex="1">
          <mxGeometry x="270" y="150" width="78" height="76" as="geometry" />
        </mxCell>
      </root>
    </mxGraphModel>
  </diagram>
  <diagram id="w9kQb1lBYUbrh2lb2KiU" name="Seite-2">
    <mxGraphModel dx="1434" dy="844" grid="1" gridSize="10" guides="1" tooltips="1" connect="1" arrows="1" fold="1" page="1" pageScale="1" pageWidth="1169" pageHeight="827" math="0" shadow="0">
      <root>
        <mxCell id="0" />
        <mxCell id="1" parent="0" />
        <mxCell id="RlOQC39ePc_FYzM9M8Qw-1" value="" style="rounded=0;whiteSpace=wrap;html=1;fontColor=#46495D;fillColor=#B2C9AB;labelBackgroundColor=none;strokeColor=#788AA3;" vertex="1" parent="1">
          <mxGeometry x="58" y="70" width="542" height="690" as="geometry" />
        </mxCell>
        <mxCell id="RlOQC39ePc_FYzM9M8Qw-2" value="" style="rounded=0;whiteSpace=wrap;html=1;dashed=1;dashPattern=8 8;labelBackgroundColor=none;fillColor=#FFFFFF;strokeColor=#788AA3;fontColor=#46495D;" vertex="1" parent="1">
          <mxGeometry x="200" y="582.91" width="254" height="137.09" as="geometry" />
        </mxCell>
        <mxCell id="RlOQC39ePc_FYzM9M8Qw-3" value="" style="edgeStyle=orthogonalEdgeStyle;rounded=0;orthogonalLoop=1;jettySize=auto;html=1;labelBackgroundColor=none;strokeColor=#33264a;fontColor=default;strokeWidth=2;" edge="1" parent="1" target="RlOQC39ePc_FYzM9M8Qw-9">
          <mxGeometry relative="1" as="geometry">
            <mxPoint x="309" y="383.9999999999999" as="sourcePoint" />
            <Array as="points">
              <mxPoint x="309" y="424" />
              <mxPoint x="414" y="424" />
            </Array>
          </mxGeometry>
        </mxCell>
        <mxCell id="RlOQC39ePc_FYzM9M8Qw-4" value="" style="rounded=0;whiteSpace=wrap;html=1;dashed=1;dashPattern=8 8;labelBackgroundColor=none;fillColor=#FFFFFF;strokeColor=#788AA3;fontColor=#46495D;" vertex="1" parent="1">
          <mxGeometry x="168" y="260" width="282" height="140" as="geometry" />
        </mxCell>
        <mxCell id="RlOQC39ePc_FYzM9M8Qw-5" value="" style="edgeStyle=orthogonalEdgeStyle;rounded=0;orthogonalLoop=1;jettySize=auto;html=1;entryX=0.5;entryY=0;entryDx=0;entryDy=0;labelBackgroundColor=none;strokeColor=#33264a;fontColor=default;strokeWidth=2;" edge="1" parent="1" source="RlOQC39ePc_FYzM9M8Qw-19" target="RlOQC39ePc_FYzM9M8Qw-4">
          <mxGeometry relative="1" as="geometry">
            <mxPoint x="260" y="158" as="targetPoint" />
          </mxGeometry>
        </mxCell>
        <mxCell id="RlOQC39ePc_FYzM9M8Qw-6" value="AWS Elastic Beanstalk" style="sketch=0;outlineConnect=0;fontColor=#46495D;strokeColor=#FFFFFF;fillColor=#33264a;dashed=0;verticalLabelPosition=middle;verticalAlign=bottom;align=center;html=1;whiteSpace=wrap;fontSize=10;fontStyle=1;spacing=3;shape=mxgraph.aws4.productIcon;prIcon=mxgraph.aws4.elastic_beanstalk;labelBackgroundColor=none;" vertex="1" parent="1">
          <mxGeometry x="188" y="277.09000000000003" width="80" height="110" as="geometry" />
        </mxCell>
        <mxCell id="RlOQC39ePc_FYzM9M8Qw-7" value="&lt;ul&gt;&lt;li&gt;API Gateway&lt;/li&gt;&lt;li&gt;Account Management&lt;/li&gt;&lt;li&gt;Workspace Module&lt;/li&gt;&lt;li&gt;IoT Device Management&lt;/li&gt;&lt;/ul&gt;" style="text;html=1;align=left;verticalAlign=middle;whiteSpace=wrap;rounded=0;labelBackgroundColor=none;fontColor=#46495D;" vertex="1" parent="1">
          <mxGeometry x="259" y="277.09" width="176" height="77.09" as="geometry" />
        </mxCell>
        <mxCell id="RlOQC39ePc_FYzM9M8Qw-8" value="" style="edgeStyle=orthogonalEdgeStyle;rounded=0;orthogonalLoop=1;jettySize=auto;html=1;entryX=0.472;entryY=-0.021;entryDx=0;entryDy=0;entryPerimeter=0;labelBackgroundColor=none;strokeColor=#33264a;fontColor=default;strokeWidth=2;" edge="1" parent="1" source="RlOQC39ePc_FYzM9M8Qw-9" target="RlOQC39ePc_FYzM9M8Qw-2">
          <mxGeometry relative="1" as="geometry">
            <mxPoint x="598" y="462.09000000000003" as="targetPoint" />
            <Array as="points">
              <mxPoint x="414" y="563" />
              <mxPoint x="320" y="563" />
            </Array>
          </mxGeometry>
        </mxCell>
        <mxCell id="RlOQC39ePc_FYzM9M8Qw-9" value="Amazon IoT Core" style="sketch=0;outlineConnect=0;fontColor=#46495D;strokeColor=#FFFFFF;fillColor=#33264a;dashed=0;verticalLabelPosition=middle;verticalAlign=bottom;align=center;html=1;whiteSpace=wrap;fontSize=10;fontStyle=1;spacing=3;shape=mxgraph.aws4.productIcon;prIcon=mxgraph.aws4.iot_core;labelBackgroundColor=none;" vertex="1" parent="1">
          <mxGeometry x="374" y="444" width="80" height="110" as="geometry" />
        </mxCell>
        <mxCell id="RlOQC39ePc_FYzM9M8Qw-10" value="" style="endArrow=classic;html=1;rounded=0;exitX=0.5;exitY=1;exitDx=0;exitDy=0;labelBackgroundColor=none;strokeColor=#33264a;fontColor=default;strokeWidth=2;" edge="1" parent="1" source="RlOQC39ePc_FYzM9M8Qw-4" target="RlOQC39ePc_FYzM9M8Qw-16">
          <mxGeometry width="50" height="50" relative="1" as="geometry">
            <mxPoint x="309" y="383.9999999999999" as="sourcePoint" />
            <mxPoint x="488" y="301.09000000000003" as="targetPoint" />
            <Array as="points">
              <mxPoint x="309" y="424" />
              <mxPoint x="208" y="424" />
            </Array>
          </mxGeometry>
        </mxCell>
        <mxCell id="RlOQC39ePc_FYzM9M8Qw-11" value="&lt;ul&gt;&lt;li&gt;&lt;span style=&quot;background-color: initial;&quot;&gt;Smart Lights&lt;/span&gt;&lt;/li&gt;&lt;li&gt;&lt;span style=&quot;background-color: initial;&quot;&gt;Sound&lt;/span&gt;&lt;/li&gt;&lt;li&gt;&lt;span style=&quot;background-color: initial;&quot;&gt;Desk*&lt;/span&gt;&lt;/li&gt;&lt;li&gt;&lt;span style=&quot;background-color: initial;&quot;&gt;Picture Frame*&lt;/span&gt;&lt;/li&gt;&lt;li&gt;&lt;span style=&quot;background-color: initial;&quot;&gt;Sensors (e.g. temperature)*&lt;/span&gt;&lt;/li&gt;&lt;/ul&gt;&lt;div&gt;&lt;div&gt;&lt;/div&gt;&lt;div&gt;&lt;br&gt;&lt;/div&gt;&lt;/div&gt;" style="text;html=1;align=left;verticalAlign=middle;whiteSpace=wrap;rounded=0;labelBackgroundColor=none;fontColor=#46495D;" vertex="1" parent="1">
          <mxGeometry x="254" y="600" width="200" height="100" as="geometry" />
        </mxCell>
        <mxCell id="RlOQC39ePc_FYzM9M8Qw-12" value="&lt;font style=&quot;font-size: 10px;&quot;&gt;* This implementations have already been realized in existing project&lt;/font&gt;" style="text;html=1;align=center;verticalAlign=middle;whiteSpace=wrap;rounded=0;fontSize=10;labelBackgroundColor=none;fontColor=#46495D;" vertex="1" parent="1">
          <mxGeometry x="146" y="720" width="326" height="30" as="geometry" />
        </mxCell>
        <mxCell id="RlOQC39ePc_FYzM9M8Qw-13" value="Smart Office" style="text;html=1;align=center;verticalAlign=middle;whiteSpace=wrap;rounded=0;fontStyle=3;labelBackgroundColor=none;fontColor=#46495D;" vertex="1" parent="1">
          <mxGeometry x="245.75" y="120" width="126.5" height="20" as="geometry" />
        </mxCell>
        <mxCell id="RlOQC39ePc_FYzM9M8Qw-14" value="Sensory Safe Space" style="text;html=1;align=center;verticalAlign=middle;whiteSpace=wrap;rounded=0;fontStyle=1;fontSize=20;labelBackgroundColor=none;fontColor=#46495D;" vertex="1" parent="1">
          <mxGeometry x="203" y="82" width="212" height="50" as="geometry" />
        </mxCell>
        <mxCell id="RlOQC39ePc_FYzM9M8Qw-15" value="&lt;b&gt;&amp;nbsp;WebClient&lt;/b&gt;" style="text;html=1;align=center;verticalAlign=middle;whiteSpace=wrap;rounded=0;fontColor=#46495D;labelBackgroundColor=none;" vertex="1" parent="1">
          <mxGeometry x="354" y="173" width="60" height="30" as="geometry" />
        </mxCell>
        <mxCell id="RlOQC39ePc_FYzM9M8Qw-16" value="Amazon S3" style="sketch=0;outlineConnect=0;fontColor=#46495D;strokeColor=#FFFFFF;fillColor=#33264a;dashed=0;verticalLabelPosition=middle;verticalAlign=bottom;align=center;html=1;whiteSpace=wrap;fontSize=10;fontStyle=1;spacing=3;shape=mxgraph.aws4.productIcon;prIcon=mxgraph.aws4.s3;labelBackgroundColor=none;" vertex="1" parent="1">
          <mxGeometry x="168" y="444" width="80" height="100" as="geometry" />
        </mxCell>
        <mxCell id="RlOQC39ePc_FYzM9M8Qw-17" value="" style="whiteSpace=wrap;html=1;aspect=fixed;strokeColor=none;labelBackgroundColor=none;fillColor=#FFFFFF;fontColor=#46495D;" vertex="1" parent="1">
          <mxGeometry x="268" y="147" width="82" height="82" as="geometry" />
        </mxCell>
        <mxCell id="RlOQC39ePc_FYzM9M8Qw-18" value="&lt;font color=&quot;#232f3e&quot;&gt;&lt;b&gt;IoT Devices&lt;/b&gt;&lt;/font&gt;" style="outlineConnect=0;dashed=0;verticalLabelPosition=bottom;verticalAlign=top;align=center;html=1;shape=mxgraph.aws3.hardware_board;fillColor=#33264a;labelBackgroundColor=none;strokeColor=#FFFFFF;fontColor=#46495D;" vertex="1" parent="1">
          <mxGeometry x="208.5" y="599" width="67" height="90" as="geometry" />
        </mxCell>
        <mxCell id="RlOQC39ePc_FYzM9M8Qw-19" value="" style="sketch=0;outlineConnect=0;fontColor=#46495D;fillColor=#33264a;strokeColor=none;dashed=0;verticalLabelPosition=bottom;verticalAlign=top;align=center;html=1;fontSize=12;fontStyle=0;aspect=fixed;pointerEvents=1;shape=mxgraph.aws4.client;labelBackgroundColor=none;" vertex="1" parent="1">
          <mxGeometry x="270" y="150" width="78" height="76" as="geometry" />
        </mxCell>
      </root>
    </mxGraphModel>
  </diagram>
</mxfile>
